<svg width="77" height="27" viewBox="0 0 77 27" fill="none" xmlns="http://www.w3.org/2000/svg">
<g clip-path="url(#clip0_577_2808)">
<path d="M77.0002 4.2932H73.2843L66.8408 9.95681V6.29802L64.3636 8.47598V14.937C64.3636 15.1192 64.5737 15.2195 64.7124 15.101L77.0002 4.2932Z" fill="url(#paint0_linear_577_2808)"/>
<path d="M43.4053 10.6039H43.441C44.0894 10.6039 44.6171 11.1415 44.6171 11.8022C44.6171 12.4629 44.0894 13.0005 43.441 13.0005H43.4053C42.7569 13.0005 42.2292 12.4629 42.2292 11.8022C42.2292 11.1415 42.7524 10.6039 43.4053 10.6039Z" fill="white"/>
<path d="M42.4263 14.2673H44.4206V22.3458H42.4263V14.2673Z" fill="white"/>
<path d="M58.9883 21.7032C58.9838 21.6622 58.9391 21.644 58.9078 21.6759C58.6932 21.9082 58.3936 22.1133 57.9956 22.3001C57.5574 22.5051 57.0656 22.6099 56.5245 22.6099C56.1981 22.6099 55.8717 22.5598 55.5542 22.455C55.2322 22.3502 54.9416 22.1953 54.6733 21.9812C54.4095 21.767 54.1948 21.4936 54.0294 21.161C53.8639 20.8284 53.7834 20.4365 53.7834 19.99C53.7834 19.5298 53.8684 19.1197 54.0383 18.7598C54.2082 18.3998 54.4452 18.0945 54.7493 17.8485C55.0534 17.6024 55.42 17.4156 55.8493 17.2881C56.2786 17.1605 56.7526 17.0967 57.2713 17.0967C57.4278 17.0967 57.6021 17.1012 57.7944 17.1058C57.9867 17.1104 58.17 17.1195 58.3534 17.1331C58.5546 17.1468 58.7647 17.1559 58.9794 17.1696V16.9782C58.9794 16.5773 58.8229 16.2583 58.5054 16.0305C58.1879 15.8027 57.7765 15.6842 57.2713 15.6842C56.7078 15.6842 56.2562 15.7571 55.9164 15.9075C55.5765 16.0578 55.2814 16.2173 55.0221 16.3904L54.1099 15.0098C54.2664 14.8959 54.4497 14.7775 54.6509 14.6544C54.8521 14.5314 55.0891 14.4266 55.3619 14.3264C55.6347 14.2307 55.9477 14.1487 56.3009 14.0849C56.6542 14.0211 57.07 13.9892 57.544 13.9892C58.0493 13.9892 58.5099 14.0621 58.9212 14.2034C59.3326 14.3492 59.6859 14.5497 59.9765 14.8048C60.2717 15.0645 60.4952 15.3744 60.6517 15.7343C60.8082 16.0943 60.8887 16.4907 60.8887 16.9144V22.3366H59.0286L58.9883 21.7032ZM58.9839 18.7005C58.7826 18.6869 58.5814 18.6778 58.3936 18.6641C58.2371 18.6504 58.0717 18.6459 57.8928 18.6367C57.7184 18.6322 57.5664 18.6276 57.4456 18.6276C56.8017 18.6276 56.3501 18.7552 56.0908 19.0149C55.8314 19.2746 55.7017 19.5708 55.7017 19.9034C55.7017 20.2497 55.8225 20.5185 56.0639 20.7145C56.3501 20.9468 56.8017 21.0425 57.4188 20.997C57.8123 20.9241 58.1387 20.7783 58.407 20.5596C58.5769 20.4229 58.7156 20.2588 58.8229 20.0766C58.9302 19.8943 58.9839 19.6984 58.9839 19.4888V18.7005Z" fill="white"/>
<path d="M-3.05176e-05 10.8589H2.14631L7.61054 19.0285V10.8589H9.68981V22.3456H7.59265L2.07924 14.0803V22.3456H-3.05176e-05V10.8589Z" fill="white"/>
<path d="M18.7939 21.1838L18.5166 21.4663C18.3646 21.6212 18.1455 21.7853 17.8549 21.9584C17.5687 22.1315 17.202 22.2865 16.7549 22.4232C16.3077 22.5599 15.7756 22.6282 15.1585 22.6282C14.528 22.6282 13.9512 22.5188 13.4325 22.3001C12.9138 22.0814 12.4711 21.7807 12.1044 21.3934C11.7378 21.0107 11.4561 20.5459 11.2593 20.0083C11.0626 19.4706 10.9642 18.8692 10.9642 18.2176C10.9642 17.6207 11.0626 17.0648 11.2593 16.5545C11.4561 16.0442 11.7333 15.5977 12.0866 15.2195C12.4398 14.8413 12.8646 14.5406 13.3565 14.3219C13.8483 14.1032 14.3894 13.9938 14.9886 13.9938C15.7085 13.9938 16.3211 14.1305 16.8219 14.3993C17.3227 14.6682 17.7252 15.0236 18.0292 15.461C18.3333 15.8984 18.5524 16.3905 18.691 16.9418C18.8252 17.4931 18.8923 18.0581 18.8923 18.6322V18.9238H12.9719C12.9719 19.2246 13.0345 19.4934 13.1687 19.7349C13.2983 19.9764 13.4683 20.1814 13.674 20.3545C13.8841 20.5277 14.1211 20.6598 14.3849 20.751C14.6488 20.8421 14.9126 20.8876 15.1719 20.8876C15.5565 20.8876 15.8918 20.8512 16.178 20.7737C16.4642 20.7008 16.7101 20.6143 16.9158 20.514C17.117 20.4183 17.287 20.3135 17.4166 20.2042C17.5463 20.0948 17.6447 20.0083 17.7118 19.9354L18.7939 21.1838ZM16.8488 17.4612C16.8488 17.2562 16.8085 17.0466 16.7325 16.8416C16.652 16.6365 16.5357 16.4497 16.3837 16.2811C16.2317 16.1171 16.0349 15.9758 15.7979 15.8665C15.561 15.7571 15.2927 15.7025 14.9841 15.7025C14.6577 15.7025 14.367 15.7571 14.1122 15.8665C13.8573 15.9758 13.6471 16.1125 13.4772 16.2811C13.3073 16.4497 13.1776 16.6365 13.0882 16.8416C12.9988 17.0466 12.954 17.2562 12.954 17.4612H16.8488Z" fill="white"/>
<path d="M20.1398 10.8589H22.1341V22.3456H20.1398V10.8589Z" fill="white"/>
<path d="M23.3817 18.3042C23.3817 17.7164 23.4846 17.1651 23.6947 16.6411C23.9049 16.1171 24.1955 15.6615 24.5667 15.2696C24.9378 14.8777 25.385 14.5679 25.9126 14.3401C26.4402 14.1123 27.0126 13.9938 27.6476 13.9938C28.2781 13.9938 28.8549 14.1077 29.3825 14.3401C29.9102 14.5725 30.3529 14.8823 30.7285 15.2696C31.0996 15.6615 31.3903 16.1171 31.6004 16.6411C31.8106 17.1651 31.9134 17.7164 31.9134 18.3042C31.9134 18.8919 31.8106 19.4433 31.6004 19.9673C31.3903 20.4912 31.0996 20.9514 30.7285 21.3478C30.3573 21.7443 29.9102 22.0586 29.3825 22.2865C28.8594 22.5143 28.2781 22.6328 27.6476 22.6328C27.0171 22.6328 26.4402 22.5188 25.9126 22.2865C25.3894 22.0586 24.9423 21.7443 24.5667 21.3478C24.1955 20.9514 23.9049 20.4912 23.6947 19.9673C23.489 19.4433 23.3817 18.8874 23.3817 18.3042ZM27.6476 20.8694C28.0321 20.8694 28.363 20.792 28.6447 20.637C28.9264 20.4821 29.1589 20.2771 29.3468 20.0265C29.5346 19.7759 29.6687 19.4979 29.7626 19.1972C29.852 18.8965 29.8968 18.6003 29.8968 18.2996C29.8968 18.0126 29.852 17.7164 29.7626 17.4111C29.6732 17.1058 29.5346 16.8324 29.3468 16.5818C29.1589 16.3358 28.9264 16.1353 28.6447 15.9804C28.363 15.8255 28.0321 15.748 27.6476 15.748C27.263 15.748 26.9321 15.8255 26.6504 15.9804C26.3687 16.1353 26.1362 16.3358 25.9484 16.5818C25.7606 16.8279 25.6264 17.1058 25.5325 17.4111C25.4431 17.7164 25.3984 18.0126 25.3984 18.2996C25.3984 18.6003 25.4431 18.8965 25.5325 19.1972C25.622 19.4979 25.7606 19.7713 25.9484 20.0265C26.1362 20.2771 26.3687 20.4821 26.6504 20.637C26.9276 20.792 27.263 20.8694 27.6476 20.8694Z" fill="white"/>
<path d="M34.565 23.6625C34.8825 23.8812 35.2223 24.0407 35.589 24.1363C35.9557 24.232 36.3849 24.2822 36.8813 24.2822C37.4 24.2822 37.8337 24.1227 38.1825 23.7992C38.5313 23.4757 38.7057 23.0291 38.7057 22.455V21.5756C38.4329 21.808 38.1378 21.9903 37.8158 22.1361C37.4939 22.2819 37.0691 22.3502 36.537 22.3502C35.9601 22.3502 35.4504 22.2545 35.0077 22.0586C34.5606 21.8627 34.1805 21.5893 33.8675 21.2385C33.55 20.8876 33.313 20.473 33.1475 19.9991C32.9821 19.5207 32.9016 18.9967 32.9016 18.4226C32.9016 17.8257 33.0045 17.2607 33.2146 16.7322C33.4248 16.2036 33.7199 15.7434 34.1089 15.3516C34.498 14.9597 34.9675 14.6545 35.5219 14.4312C36.0764 14.2079 36.6935 14.094 37.3821 14.094C38.0707 14.094 38.7057 14.1533 39.2825 14.2672C39.8638 14.3811 40.3333 14.5041 40.6955 14.6271V22.4869C40.6955 23.0519 40.6016 23.5486 40.4093 23.986C40.2171 24.4234 39.9532 24.7879 39.6134 25.0886C39.2736 25.3894 38.8756 25.6126 38.4106 25.7675C37.95 25.9225 37.4447 25.9999 36.9036 25.9999C36.4878 25.9999 36.1167 25.9817 35.7947 25.9407C35.4728 25.8997 35.1866 25.845 34.9317 25.7767C34.6768 25.7083 34.4488 25.6217 34.2386 25.5169C34.0284 25.4121 33.8362 25.2937 33.6528 25.157L34.565 23.6625ZM38.7057 16.0305C38.5492 15.9713 38.3837 15.9303 38.2138 15.9029C38.0439 15.8756 37.7801 15.8574 37.4179 15.8574C37.011 15.8574 36.6577 15.9257 36.3536 16.0624C36.0496 16.1991 35.7902 16.3859 35.5756 16.6137C35.361 16.8415 35.2 17.1104 35.0927 17.4156C34.9854 17.7209 34.9317 18.0399 34.9317 18.3725C34.9317 18.9922 35.0837 19.5161 35.3878 19.9399C35.6919 20.3636 36.1837 20.5778 36.8589 20.5778C37.4671 20.5778 37.9276 20.4457 38.2362 20.1814C38.5447 19.9171 38.7012 19.4979 38.7012 18.9238L38.7057 16.0305Z" fill="white"/>
<path d="M53.0237 21.284C52.6526 21.685 52.2099 22.0085 51.7046 22.25C51.1993 22.4915 50.6046 22.6099 49.9294 22.6099C49.2542 22.6099 48.6505 22.5051 48.1184 22.3001C47.5863 22.0951 47.1436 21.7989 46.7814 21.4207C46.4192 21.0425 46.142 20.5869 45.9542 20.0583C45.7619 19.5298 45.668 18.942 45.668 18.2996C45.668 17.7118 45.7709 17.1605 45.981 16.6365C46.1912 16.1125 46.4819 15.6569 46.853 15.265C47.2241 14.8732 47.6713 14.5633 48.1989 14.3355C48.7221 14.1077 49.2989 13.9892 49.9339 13.9892C50.5778 13.9892 51.1636 14.1077 51.6912 14.3446C52.2188 14.5815 52.6705 14.9005 53.0461 15.3015L51.7762 16.6091C51.5526 16.3449 51.2843 16.1398 50.9802 15.9895C50.6762 15.8391 50.3274 15.7662 49.9294 15.7662C49.5449 15.7662 49.214 15.8391 48.9323 15.9804C48.6506 16.1262 48.418 16.3084 48.2302 16.5408C48.0424 16.7686 47.9083 17.042 47.8144 17.3518C47.7249 17.6617 47.6802 17.9761 47.6802 18.2996C47.6802 18.6094 47.7249 18.9147 47.8144 19.2109C47.9038 19.5116 48.0424 19.7804 48.2302 20.0219C48.418 20.2634 48.6506 20.4593 48.9323 20.6097C49.214 20.76 49.5449 20.8329 49.9294 20.8329C50.3229 20.8329 50.6851 20.7555 51.0115 20.6006C51.3379 20.4456 51.6152 20.236 51.8388 19.9718L53.0237 21.284Z" fill="white"/>
<path d="M64.8463 21.7213C64.7659 21.5892 64.6943 21.4935 64.6407 21.4388C64.6094 21.4069 64.5691 21.3842 64.5199 21.3614C64.6407 21.3523 64.739 21.3113 64.8106 21.2338C64.8821 21.1563 64.9179 21.0652 64.9179 20.9604C64.9179 20.8875 64.8955 20.8192 64.8553 20.7508C64.8106 20.687 64.7524 20.6369 64.6809 20.6141C64.6049 20.5868 64.4886 20.5731 64.3232 20.5731H63.8894C63.8626 20.5731 63.8447 20.5959 63.8447 20.6187V21.9947H64.0683V21.3887H64.2025C64.2829 21.3887 64.3411 21.4069 64.3813 21.4388C64.4394 21.4844 64.5199 21.5938 64.6183 21.7715L64.7435 21.9947H65.0207L64.8463 21.7213ZM64.3411 21.1973H64.0683V20.7645H64.3232C64.435 20.7645 64.511 20.7736 64.5512 20.7918C64.5915 20.8055 64.6228 20.8328 64.6451 20.8647C64.6675 20.8966 64.6809 20.9376 64.6809 20.9786C64.6809 21.047 64.6585 21.0971 64.6094 21.1381C64.5602 21.1746 64.4707 21.1973 64.3411 21.1973Z" fill="white"/>
<path d="M64.3634 20.1905C64.9537 20.1905 65.4366 20.6825 65.4366 21.284C65.4366 21.8854 64.9537 22.3775 64.3634 22.3775C63.7732 22.3775 63.2902 21.8854 63.2902 21.284C63.2902 20.6825 63.7732 20.1905 64.3634 20.1905ZM64.3634 19.9626C63.6435 19.9626 63.0622 20.555 63.0622 21.2885C63.0622 22.0221 63.6435 22.6145 64.3634 22.6145C65.0833 22.6145 65.6646 22.0221 65.6646 21.2885C65.6646 20.555 65.0833 19.9626 64.3634 19.9626Z" fill="white"/>
<path d="M57.1774 10.8589H60.8932L67.3367 5.19531V8.8541L69.814 6.67614V0.215153C69.814 0.0328966 69.6038 -0.0673432 69.4652 0.0511234L57.1774 10.8589Z" fill="url(#paint1_linear_577_2808)"/>
</g>
<defs>
<linearGradient id="paint0_linear_577_2808" x1="64.3631" y1="9.72179" x2="77.0002" y2="9.72179" gradientUnits="userSpaceOnUse">
<stop stop-color="#1DAAFB"/>
<stop offset="1" stop-color="#106CC9"/>
</linearGradient>
<linearGradient id="paint1_linear_577_2808" x1="57.1769" y1="5.42946" x2="69.814" y2="5.42946" gradientUnits="userSpaceOnUse">
<stop stop-color="#179016"/>
<stop offset="1" stop-color="#8AE12B"/>
</linearGradient>
<clipPath id="clip0_577_2808">
<rect width="77" height="26" fill="white"/>
</clipPath>
</defs>
</svg>
