<svg width="21" height="24" viewBox="0 0 21 24" fill="none" xmlns="http://www.w3.org/2000/svg">
<path d="M11.3369 13.0493C11.4996 13.0497 11.5937 13.2447 11.5 13.3862L5.04688 23.1118C4.86955 23.3787 4.58217 23.5375 4.27539 23.5376H0L4.30273 17.103H0.216797C0.0973029 17.103 0 16.9989 0 16.8716V13.2798C0 13.1524 0.0973029 13.0493 0.216797 13.0493H11.3369ZM11.6006 0.462402C11.9088 0.462402 12.1979 0.618341 12.376 0.880371L19.8916 11.9438V11.9448C19.941 12.017 19.9411 12.1143 19.8916 12.187L12.4648 23.1196C12.2868 23.3817 11.9976 23.5376 11.6895 23.5376H7.43066L15.2236 12.0649L15.2275 12.0718V12.0591L15.2236 12.0649L7.3418 0.462402H11.6006ZM4.24316 0.462402C4.55019 0.462402 4.83827 0.621184 5.01562 0.887207L11.5 10.6157C11.5937 10.7566 11.4996 10.9513 11.3369 10.9517H0.216797C0.0973084 10.9517 0 10.8479 0 10.7212V7.146C0 7.01924 0.0973084 6.9165 0.216797 6.9165H4.30273L0.000976562 0.462402H4.24316Z" fill="#F2F2F2"/>
</svg>
