<svg width="125" height="24" viewBox="0 0 125 24" fill="none" xmlns="http://www.w3.org/2000/svg">
<path d="M58.2298 14.36C58.2298 13.272 58.4858 12.272 58.9978 11.36C59.5098 10.448 60.2138 9.72 61.1098 9.176C62.0218 8.632 63.0778 8.36 64.2778 8.36C65.4778 8.36 66.5258 8.632 67.4218 9.176C68.3338 9.72 69.0458 10.448 69.5578 11.36C70.0698 12.272 70.3258 13.272 70.3258 14.36C70.3258 15.448 70.0698 16.448 69.5578 17.36C69.0458 18.272 68.3338 19.008 67.4218 19.568C66.5258 20.112 65.4778 20.384 64.2778 20.384C63.0778 20.384 62.0218 20.112 61.1098 19.568C60.2138 19.008 59.5098 18.272 58.9978 17.36C58.4858 16.448 58.2298 15.448 58.2298 14.36ZM64.2778 17.936C64.9978 17.936 65.5898 17.752 66.0538 17.384C66.5338 17.016 66.8858 16.56 67.1098 16.016C67.3498 15.456 67.4698 14.904 67.4698 14.36C67.4698 13.816 67.3498 13.272 67.1098 12.728C66.8858 12.184 66.5338 11.728 66.0538 11.36C65.5898 10.992 64.9978 10.808 64.2778 10.808C63.5578 10.808 62.9578 10.992 62.4778 11.36C62.0138 11.728 61.6618 12.184 61.4218 12.728C61.1978 13.272 61.0858 13.816 61.0858 14.36C61.0858 14.904 61.1978 15.456 61.4218 16.016C61.6618 16.56 62.0138 17.016 62.4778 17.384C62.9578 17.752 63.5578 17.936 64.2778 17.936Z" fill="white"/>
<path d="M53.1328 20V3.992H55.9648V20H53.1328Z" fill="white"/>
<path d="M49.2668 16.64L50.8028 18.368C50.7548 18.416 50.6188 18.552 50.3948 18.776C50.1868 18.984 49.8748 19.216 49.4588 19.472C49.0588 19.712 48.5388 19.92 47.8988 20.096C47.2748 20.288 46.5228 20.384 45.6428 20.384C44.4428 20.384 43.3948 20.128 42.4988 19.616C41.6188 19.088 40.9308 18.36 40.4348 17.432C39.9388 16.504 39.6908 15.44 39.6908 14.24C39.6908 13.136 39.9308 12.144 40.4108 11.264C40.9068 10.368 41.5788 9.664 42.4268 9.152C43.2908 8.624 44.2828 8.36 45.4028 8.36C46.4428 8.36 47.3148 8.544 48.0188 8.912C48.7228 9.28 49.2908 9.776 49.7228 10.4C50.1548 11.008 50.4668 11.696 50.6588 12.464C50.8508 13.232 50.9468 14.016 50.9468 14.816V15.224H42.5468C42.5468 15.768 42.6988 16.248 43.0028 16.664C43.3228 17.064 43.7228 17.384 44.2028 17.624C44.6828 17.848 45.1708 17.96 45.6668 17.96C46.4028 17.96 47.0108 17.88 47.4908 17.72C47.9708 17.544 48.3548 17.352 48.6428 17.144C48.9308 16.936 49.1388 16.768 49.2668 16.64ZM42.5228 13.184H48.0428C48.0428 12.8 47.9388 12.424 47.7308 12.056C47.5388 11.672 47.2508 11.36 46.8668 11.12C46.4828 10.864 45.9948 10.736 45.4028 10.736C44.7788 10.736 44.2508 10.864 43.8188 11.12C43.4028 11.36 43.0828 11.672 42.8588 12.056C42.6348 12.424 42.5228 12.8 42.5228 13.184Z" fill="white"/>
<path d="M27 20V8.744H29.712L29.784 10.016C30.072 9.696 30.488 9.368 31.032 9.032C31.576 8.68 32.288 8.504 33.168 8.504C34.56 8.504 35.624 8.928 36.36 9.776C37.112 10.608 37.488 11.736 37.488 13.16V20H34.656V13.184C34.656 12.48 34.456 11.928 34.056 11.528C33.672 11.128 33.168 10.928 32.544 10.928C31.76 10.928 31.112 11.216 30.6 11.792C30.088 12.368 29.832 13.072 29.832 13.904V20H27Z" fill="white"/>
<path d="M114.513 20V8.87622H121.184V9.6267H115.314V13.8294H119.9V14.5799H115.314V19.2495H121.618V20H114.513Z" fill="white"/>
<path d="M104.578 20V8.87622H107.93C108.898 8.87622 109.67 9.01519 110.249 9.29315C110.827 9.55999 111.238 9.93245 111.483 10.4105C111.738 10.8775 111.866 11.4167 111.866 12.0282C111.866 12.7509 111.677 13.3958 111.299 13.9628C110.932 14.5187 110.343 14.8912 109.531 15.0802L112.183 20H111.266L108.681 15.1802H105.379V20H104.578ZM105.379 14.4298H108.264C110.099 14.4298 111.016 13.6292 111.016 12.0282C111.016 11.2277 110.771 10.6273 110.282 10.2271C109.793 9.82682 109.087 9.6267 108.164 9.6267H105.379V14.4298Z" fill="white"/>
<path d="M96.6831 20.2668C95.8826 20.2668 95.1432 20.1223 94.465 19.8332C93.7979 19.533 93.2142 19.1161 92.7139 18.5824C92.2247 18.0487 91.8411 17.4317 91.5631 16.7312C91.2963 16.0197 91.1629 15.2581 91.1629 14.4464C91.1629 13.6237 91.2963 12.8621 91.5631 12.1616C91.8411 11.4501 92.2247 10.833 92.7139 10.3105C93.2142 9.77679 93.7979 9.35986 94.465 9.05967C95.1432 8.75947 95.8826 8.60938 96.6831 8.60938C97.4836 8.60938 98.2174 8.75947 98.8845 9.05967C99.5627 9.35986 100.146 9.77679 100.636 10.3105C101.136 10.833 101.519 11.4501 101.786 12.1616C102.064 12.8621 102.203 13.6237 102.203 14.4464C102.203 15.2581 102.064 16.0197 101.786 16.7312C101.519 17.4317 101.136 18.0487 100.636 18.5824C100.146 19.1161 99.5627 19.533 98.8845 19.8332C98.2174 20.1223 97.4836 20.2668 96.6831 20.2668ZM96.6831 19.5163C97.6281 19.5163 98.4453 19.2884 99.1346 18.8326C99.8351 18.3767 100.38 17.7652 100.769 16.9981C101.158 16.2309 101.353 15.3804 101.353 14.4464C101.353 13.5014 101.158 12.6453 100.769 11.8781C100.38 11.111 99.8351 10.4995 99.1346 10.0436C98.4453 9.58778 97.6281 9.35986 96.6831 9.35986C95.7491 9.35986 94.932 9.58778 94.2315 10.0436C93.5311 10.4995 92.9863 11.111 92.5971 11.8781C92.208 12.6453 92.0134 13.5014 92.0134 14.4464C92.0134 15.3804 92.208 16.2309 92.5971 16.9981C92.9863 17.7652 93.5311 18.3767 94.2315 18.8326C94.932 19.2884 95.7491 19.5163 96.6831 19.5163Z" fill="white"/>
<path d="M85.8612 20V9.59334H81.5418V8.87622H90.9811V9.59334H86.6617V20H85.8612Z" fill="white"/>
<path d="M73 18.5324L73.5837 17.9653C73.9617 18.4101 74.4176 18.7825 74.9513 19.0827C75.4849 19.3718 76.1242 19.5163 76.8691 19.5163C77.7252 19.5163 78.4313 19.3218 78.9872 18.9326C79.5431 18.5324 79.821 17.9431 79.821 17.1648C79.821 16.6089 79.6821 16.1642 79.4041 15.8306C79.1373 15.4971 78.787 15.2358 78.3534 15.0468C77.9198 14.8578 77.4695 14.7021 77.0026 14.5798C76.5801 14.4575 76.1576 14.3297 75.7351 14.1963C75.3237 14.0517 74.9457 13.8738 74.601 13.6626C74.2675 13.4402 73.9951 13.1512 73.7838 12.7954C73.5837 12.4285 73.4837 11.9726 73.4837 11.4278C73.4837 10.9164 73.6171 10.4494 73.8839 10.0269C74.1619 9.59334 74.5566 9.24867 75.068 8.99296C75.5906 8.73724 76.2132 8.60938 76.9359 8.60938C77.5696 8.60938 78.1033 8.69277 78.5369 8.85954C78.9705 9.02631 79.3263 9.22644 79.6042 9.45992C79.8933 9.6934 80.1157 9.92133 80.2713 10.1437L79.7043 10.6273C79.5709 10.4494 79.3874 10.266 79.1539 10.077C78.9205 9.87685 78.6203 9.70452 78.2534 9.55998C77.8976 9.41545 77.4473 9.34318 76.9025 9.34318C76.291 9.34318 75.7907 9.4488 75.4015 9.66005C75.0235 9.86018 74.7456 10.1215 74.5677 10.4439C74.3898 10.7663 74.3008 11.1054 74.3008 11.4612C74.3008 11.9949 74.4565 12.4118 74.7678 12.712C75.0791 13.0011 75.4738 13.229 75.9519 13.3958C76.4411 13.5625 76.9359 13.7126 77.4362 13.846C77.8253 13.9461 78.2089 14.074 78.5869 14.2296C78.976 14.3853 79.3263 14.5854 79.6376 14.83C79.96 15.0746 80.2157 15.3859 80.4047 15.7639C80.5937 16.142 80.6882 16.6089 80.6882 17.1648C80.6882 17.8097 80.5159 18.3656 80.1713 18.8326C79.8377 19.2884 79.3819 19.6442 78.8037 19.8999C78.2256 20.1445 77.5807 20.2668 76.8691 20.2668C75.9352 20.2668 75.1347 20.0889 74.4676 19.7331C73.8116 19.3662 73.3224 18.966 73 18.5324Z" fill="white"/>
<path d="M2.5 2H17.5C18.9167 2 20 3.08333 20 4.5V19.5C20 20.9167 18.9167 22 17.5 22H2.5C1.08333 22 0 20.9167 0 19.5V4.5C0 3.08333 1.08333 2 2.5 2Z" fill="url(#paint0_radial_3_4522)"/>
<path d="M17.5833 9.41667C17.5833 9 17.1667 8.66667 16.75 8.66667H13.3333V7.83333C13.3333 6.41667 12.25 5.33333 10.8333 5.33333H9.16667C7.75 5.33333 6.66667 6.41667 6.66667 7.83333V8.66667H3.33333C2.91667 8.66667 2.5 9 2.5 9.41667L1.75 21.0833C1.75 21.5833 2.08333 22 2.58333 22H17.5C18 22 18.3333 21.5833 18.3333 21.0833L17.5833 9.41667ZM8.33333 7.83333C8.33333 7.33333 8.66667 7 9.16667 7H10.8333C11.3333 7 11.6667 7.33333 11.6667 7.83333V8.66667H8.33333V7.83333ZM2.58333 18.25L11.4167 11.1667C11.5 11.0833 11.6667 11.1667 11.6667 11.25V15.5L9.91667 16.9167V14.5L5.25 18.1667H2.58333V18.25ZM16.75 14.1667L7.83333 21.25C7.75 21.3333 7.58333 21.25 7.58333 21.1667V16.9167L9.33333 15.5V17.9167L14 14.25L16.75 14.1667Z" fill="white"/>
<defs>
<radialGradient id="paint0_radial_3_4522" cx="0" cy="0" r="1" gradientUnits="userSpaceOnUse" gradientTransform="translate(9.99995 21.9993) rotate(-90) scale(20 25.8454)">
<stop stop-color="#125CE0"/>
<stop offset="1" stop-color="#00CB8D"/>
</radialGradient>
</defs>
</svg>
