<svg width="20" height="20" viewBox="0 0 20 20" fill="none" xmlns="http://www.w3.org/2000/svg">
<path d="M2.5 0H17.5C18.9167 0 20 1.08333 20 2.5V17.5C20 18.9167 18.9167 20 17.5 20H2.5C1.08333 20 0 18.9167 0 17.5V2.5C0 1.08333 1.08333 0 2.5 0Z" fill="url(#paint0_radial_9366_188779)"/>
<path d="M17.5833 7.41683C17.5833 7.00016 17.1667 6.66683 16.75 6.66683H13.3333V5.8335C13.3333 4.41683 12.25 3.3335 10.8333 3.3335H9.16667C7.75 3.3335 6.66667 4.41683 6.66667 5.8335V6.66683H3.33333C2.91667 6.66683 2.5 7.00016 2.5 7.41683L1.75 19.0835C1.75 19.5835 2.08333 20.0002 2.58333 20.0002H17.5C18 20.0002 18.3333 19.5835 18.3333 19.0835L17.5833 7.41683ZM8.33333 5.8335C8.33333 5.3335 8.66667 5.00016 9.16667 5.00016H10.8333C11.3333 5.00016 11.6667 5.3335 11.6667 5.8335V6.66683H8.33333V5.8335ZM2.58333 16.2502L11.4167 9.16683C11.5 9.0835 11.6667 9.16683 11.6667 9.25016V13.5002L9.91667 14.9168V12.5002L5.25 16.1668H2.58333V16.2502ZM16.75 12.1668L7.83333 19.2502C7.75 19.3335 7.58333 19.2502 7.58333 19.1668V14.9168L9.33333 13.5002V15.9168L14 12.2502L16.75 12.1668Z" fill="white"/>
<defs>
<radialGradient id="paint0_radial_9366_188779" cx="0" cy="0" r="1" gradientUnits="userSpaceOnUse" gradientTransform="translate(9.99995 19.9993) rotate(-90) scale(20 25.8454)">
<stop stop-color="#125CE0"/>
<stop offset="1" stop-color="#00CB8D"/>
</radialGradient>
</defs>
</svg>
